<svg width="18" height="18" viewBox="0 0 18 18" fill="none" xmlns="http://www.w3.org/2000/svg">
<path d="M4.4831 2.25734C3.33867 2.38524 2.42262 3.28849 2.29021 4.4206C1.93452 7.46176 1.93452 10.534 2.29021 13.5752C2.42262 14.7073 3.33867 15.6105 4.4831 15.7384C7.45993 16.0711 10.5395 16.0711 13.5164 15.7384C14.6608 15.6105 15.5768 14.7073 15.7092 13.5752C15.9648 11.39 16.0368 9.18876 15.9251 6.9946C15.9222 6.93794 15.9433 6.88267 15.9835 6.84255L17.0222 5.80377C17.1425 5.68354 17.3479 5.75872 17.3607 5.92828C17.5567 8.53316 17.5029 11.1523 17.1991 13.7494C16.9842 15.5864 15.5093 17.025 13.683 17.2292C10.5954 17.5742 7.40403 17.5742 4.31649 17.2292C2.49011 17.025 1.01521 15.5864 0.800367 13.7494C0.431127 10.5925 0.431127 7.40326 0.800367 4.24635C1.01521 2.40939 2.49011 0.970742 4.31649 0.766622C7.40403 0.421542 10.5954 0.421542 13.683 0.766622C14.3262 0.838512 14.9259 1.06354 15.4422 1.40518C15.5438 1.4724 15.5539 1.61524 15.4678 1.70139L14.6649 2.50427C14.5992 2.56994 14.4973 2.58099 14.4155 2.53712C14.1421 2.39063 13.8383 2.29331 13.5164 2.25734C10.5395 1.92463 7.45993 1.92463 4.4831 2.25734Z" fill="#242424"/>
</svg>
