<svg width="24" height="24" viewBox="0 0 24 24" fill="none" xmlns="http://www.w3.org/2000/svg">
<path fill-rule="evenodd" clip-rule="evenodd" d="M14.3805 15.4401C11.7302 17.5628 7.85081 17.3957 5.39402 14.9389C2.75798 12.3029 2.75798 8.02909 5.39402 5.39305C8.03006 2.75701 12.3039 2.75701 14.9399 5.39305C17.3967 7.84983 17.5638 11.7292 15.4411 14.3795L20.5968 19.5351C20.8897 19.828 20.8897 20.3029 20.5968 20.5958C20.3039 20.8887 19.829 20.8887 19.5361 20.5958L14.3805 15.4401ZM6.45468 13.8783C4.40443 11.828 4.40443 8.50396 6.45468 6.45371C8.50494 4.40346 11.829 4.40346 13.8793 6.45371C15.928 8.50246 15.9295 11.8231 13.8838 13.8738C13.8823 13.8753 13.8808 13.8767 13.8792 13.8783C13.8777 13.8798 13.8762 13.8813 13.8748 13.8828C11.8241 15.9285 8.50343 15.927 6.45468 13.8783Z" fill="#9E9E9E"/>
</svg>
